# xmcd
#
# Track frame offsets:
#	150
#	20535
#	33067
#	55053
#	70626
#	92466
#	109271
#	127857
#	144898
#	157425
#	170774
#
# Disc length: 2533
#
# Revision: 1
# Processed by: cddbd v1.5.1PL0 Copyright (c) Steve Scherf et al.
# Submitted via: dBpowerAMP V4.0
# Normalized: r0:TDELIM( - )
#
DISCID=8909e30b
DTITLE=Delta Blue - Live
DYEAR=1900
DGENRE=
TTITLE0=Willie Dixon - Hoochie Coochie Man
TTITLE1=Delta Blue - Gerry's Blues
TTITLE2=Freddy King - Every Day I Have The Blues
TTITLE3=Lonnie Mack - Oreo Cookie Blues
TTITLE4=Delta Blue - El Minor
TTITLE5=John Lee Hooker - I Am In The Mood
TTITLE6=Buddy Guy - It Really Doesn't Matter
TTITLE7=Terry and McGhee - Trouble In Mind
TTITLE8=JJ Cale - Treat Me Like You Used To
TTITLE9=Delta Blue - One More Blue
TTITLE10=Canned Heart - On The Road Again
EXTD=
EXTT0=
EXTT1=
EXTT2=
EXTT3=
EXTT4=
EXTT5=
EXTT6=
EXTT7=
EXTT8=
EXTT9=
EXTT10=
PLAYORDER=
